<svg id="restaurant_menu-black-18dp" xmlns="http://www.w3.org/2000/svg" width="44" height="44" viewBox="0 0 44 44">
  <path id="Path_1" data-name="Path 1" d="M0,0H44V44H0Z" fill="none"/>
  <path id="Path_2" data-name="Path 2" d="M12.566,21.846l5.188-5.188L6.406,5.327a1.844,1.844,0,0,0-2.952.495,7.363,7.363,0,0,0,1.43,8.36ZM25,18.527c2.8,1.3,6.747.385,9.662-2.53,3.5-3.5,4.18-8.525,1.485-11.22-2.677-2.677-7.7-2.017-11.22,1.485-2.915,2.915-3.832,6.857-2.53,9.662L5.783,32.534a1.828,1.828,0,0,0,2.585,2.585L19.716,23.807l11.33,11.33a1.828,1.828,0,1,0,2.585-2.585L22.3,21.222,25,18.527Z" transform="translate(2.284 2.611)" fill="#fff"/>
</svg>
