<svg id="shopping_cart-black-18dp" xmlns="http://www.w3.org/2000/svg" width="44" height="44" viewBox="0 0 44 44">
  <path id="Path_3" data-name="Path 3" d="M0,0H44V44H0Z" fill="none"/>
  <path id="Path_4" data-name="Path 4" d="M13,34a4,4,0,1,0,4,4A3.994,3.994,0,0,0,13,34ZM1,4A2.006,2.006,0,0,0,3,6H5l7.2,15.18L9.5,26.06A4.007,4.007,0,0,0,13,32h22a2,2,0,0,0,0-4H13l2.2-4h14.9a3.98,3.98,0,0,0,3.5-2.06L40.753,8.96A1.992,1.992,0,0,0,39.013,6H9.418L8.079,3.14A1.985,1.985,0,0,0,6.279,2H3A2.006,2.006,0,0,0,1,4ZM32.994,34a4,4,0,1,0,4,4A3.994,3.994,0,0,0,32.994,34Z" fill="#fff"/>
</svg>
